# xmcd CD database file
#
# Track frame offsets:
#	150
#	19964
#	35491
#	51416
#	66912
#	80006
#	91891
#	107610
#	126909
#	143533
#	162651
#	183752
#	196146
#	216783
#	229759
#	257929
#	273721
#	289515
#
# Disc length: 4065 seconds
#
# Revision: 2
# Processed by: cddbd v1.5.1PL2 Copyright (c) Steve Scherf et al.
# Submitted via: CDex 1.51
#
DISCID=0b0fdf12
DTITLE=Buddy Richard - Mis Mas Grandes Exitos
DYEAR=1995
DGENRE=Rock
TTITLE0=Mentira
TTITLE1=Balada De La Tristeza
TTITLE2=Tu Cariño se me va
TTITLE3=Te Necesito
TTITLE4=Si Me Vas Abandonar
TTITLE5=Esperame
TTITLE6=Toma Mi Cariño
TTITLE7=Despidete Con Un Beso
TTITLE8=Guitarra Toca Otra Vez
TTITLE9=Me Quiero Disculpar
TTITLE10=Por Ti
TTITLE11=Ay Amor
TTITLE12=No Quiero Seguir Perdiendo
TTITLE13=Al Final De La Tarde
TTITLE14=Medley
TTITLE15=Angelitos Negros
TTITLE16=Con Mi Bombo Y Mi Chin-Chin
TTITLE17=Quiera Dios
EXTD=YEAR: 1995
EXTT0=
EXTT1=
EXTT2=
EXTT3=
EXTT4=
EXTT5=
EXTT6=
EXTT7=
EXTT8=
EXTT9=
EXTT10=
EXTT11=
EXTT12=
EXTT13=
EXTT14=
EXTT15=
EXTT16=
EXTT17=
PLAYORDER=
